<svg width="128" height="40" viewBox="0 0 128 40" fill="none" xmlns="http://www.w3.org/2000/svg">
<rect x="8.04663" width="120" height="25" transform="rotate(7 8.04663 0)" fill="#88C0DF"/>
<rect y="9" width="120" height="25" fill="#0F7ECA"/>
<path d="M15.456 15.8V27H13.376V22.2H7.584V27H5.504V15.8H7.584V20.424H13.376V15.8H15.456ZM22.1051 27.112C21.2411 27.112 20.4625 26.9253 19.7691 26.552C19.0758 26.1787 18.5318 25.6613 18.1371 25C17.7531 24.328 17.5611 23.5707 17.5611 22.728C17.5611 21.8853 17.7531 21.1333 18.1371 20.472C18.5318 19.8107 19.0758 19.2933 19.7691 18.92C20.4625 18.5467 21.2411 18.36 22.1051 18.36C22.9798 18.36 23.7638 18.5467 24.4571 18.92C25.1505 19.2933 25.6891 19.8107 26.0731 20.472C26.4678 21.1333 26.6651 21.8853 26.6651 22.728C26.6651 23.5707 26.4678 24.328 26.0731 25C25.6891 25.6613 25.1505 26.1787 24.4571 26.552C23.7638 26.9253 22.9798 27.112 22.1051 27.112ZM22.1051 25.4C22.8411 25.4 23.4491 25.1547 23.9291 24.664C24.4091 24.1733 24.6491 23.528 24.6491 22.728C24.6491 21.928 24.4091 21.2827 23.9291 20.792C23.4491 20.3013 22.8411 20.056 22.1051 20.056C21.3691 20.056 20.7611 20.3013 20.2811 20.792C19.8118 21.2827 19.5771 21.928 19.5771 22.728C19.5771 23.528 19.8118 24.1733 20.2811 24.664C20.7611 25.1547 21.3691 25.4 22.1051 25.4ZM33.7136 26.536C33.479 26.728 33.191 26.872 32.8496 26.968C32.519 27.064 32.167 27.112 31.7936 27.112C30.855 27.112 30.1296 26.8667 29.6176 26.376C29.1056 25.8853 28.8496 25.1707 28.8496 24.232V20.12H27.4416V18.52H28.8496V16.568H30.8496V18.52H33.1376V20.12H30.8496V24.184C30.8496 24.6 30.951 24.92 31.1536 25.144C31.3563 25.3573 31.6496 25.464 32.0336 25.464C32.4816 25.464 32.855 25.3467 33.1536 25.112L33.7136 26.536ZM43.1096 22.776C43.1096 22.9147 43.099 23.112 43.0776 23.368H36.3736C36.491 23.9973 36.795 24.4987 37.2856 24.872C37.787 25.2347 38.4056 25.416 39.1416 25.416C40.0803 25.416 40.8536 25.1067 41.4616 24.488L42.5336 25.72C42.1496 26.1787 41.6643 26.5253 41.0776 26.76C40.491 26.9947 39.8296 27.112 39.0936 27.112C38.155 27.112 37.3283 26.9253 36.6136 26.552C35.899 26.1787 35.3443 25.6613 34.9496 25C34.5656 24.328 34.3736 23.5707 34.3736 22.728C34.3736 21.896 34.5603 21.1493 34.9336 20.488C35.3176 19.816 35.8456 19.2933 36.5176 18.92C37.1896 18.5467 37.947 18.36 38.7896 18.36C39.6216 18.36 40.363 18.5467 41.0136 18.92C41.675 19.2827 42.187 19.8 42.5496 20.472C42.923 21.1333 43.1096 21.9013 43.1096 22.776ZM38.7896 19.96C38.1496 19.96 37.6056 20.152 37.1576 20.536C36.7203 20.9093 36.4536 21.4107 36.3576 22.04H41.2056C41.1203 21.4213 40.859 20.92 40.4216 20.536C39.9843 20.152 39.4403 19.96 38.7896 19.96ZM45.0308 15.128H47.0308V27H45.0308V15.128ZM58.8136 18.36C59.6456 18.36 60.387 18.5413 61.0376 18.904C61.699 19.2667 62.2163 19.7787 62.5896 20.44C62.963 21.1013 63.1496 21.864 63.1496 22.728C63.1496 23.592 62.963 24.36 62.5896 25.032C62.2163 25.6933 61.699 26.2053 61.0376 26.568C60.387 26.9307 59.6456 27.112 58.8136 27.112C57.6616 27.112 56.7496 26.728 56.0776 25.96V30.104H54.0776V18.456H55.9816V19.576C56.3123 19.1707 56.7176 18.8667 57.1976 18.664C57.6883 18.4613 58.227 18.36 58.8136 18.36ZM58.5896 25.4C59.3256 25.4 59.9283 25.1547 60.3976 24.664C60.8776 24.1733 61.1176 23.528 61.1176 22.728C61.1176 21.928 60.8776 21.2827 60.3976 20.792C59.9283 20.3013 59.3256 20.056 58.5896 20.056C58.1096 20.056 57.6776 20.168 57.2936 20.392C56.9096 20.6053 56.6056 20.9147 56.3816 21.32C56.1576 21.7253 56.0456 22.1947 56.0456 22.728C56.0456 23.2613 56.1576 23.7307 56.3816 24.136C56.6056 24.5413 56.9096 24.856 57.2936 25.08C57.6776 25.2933 58.1096 25.4 58.5896 25.4ZM68.201 18.36C69.4597 18.36 70.4197 18.664 71.081 19.272C71.753 19.8693 72.089 20.776 72.089 21.992V27H70.201V25.96C69.9557 26.3333 69.6037 26.6213 69.145 26.824C68.697 27.016 68.153 27.112 67.513 27.112C66.873 27.112 66.313 27.0053 65.833 26.792C65.353 26.568 64.9797 26.264 64.713 25.88C64.457 25.4853 64.329 25.0427 64.329 24.552C64.329 23.784 64.6117 23.1707 65.177 22.712C65.753 22.2427 66.6543 22.008 67.881 22.008H70.089V21.88C70.089 21.2827 69.9077 20.824 69.545 20.504C69.193 20.184 68.665 20.024 67.961 20.024C67.481 20.024 67.0063 20.0987 66.537 20.248C66.0783 20.3973 65.689 20.6053 65.369 20.872L64.585 19.416C65.033 19.0747 65.5717 18.8133 66.201 18.632C66.8303 18.4507 67.497 18.36 68.201 18.36ZM67.929 25.656C68.4303 25.656 68.873 25.544 69.257 25.32C69.6517 25.0853 69.929 24.7547 70.089 24.328V23.336H68.025C66.873 23.336 66.297 23.7147 66.297 24.472C66.297 24.8347 66.441 25.1227 66.729 25.336C67.017 25.5493 67.417 25.656 67.929 25.656ZM76.5598 19.704C77.1358 18.808 78.1491 18.36 79.5998 18.36V20.264C79.4291 20.232 79.2744 20.216 79.1358 20.216C78.3571 20.216 77.7491 20.4453 77.3118 20.904C76.8744 21.352 76.6558 22.0027 76.6558 22.856V27H74.6558V18.456H76.5598V19.704ZM84.7844 23.336L83.2964 24.744V27H81.2964V15.128H83.2964V22.296L87.4404 18.456H89.8404L86.2724 22.04L90.1764 27H87.7444L84.7844 23.336ZM91.3901 18.456H93.3901V27H91.3901V18.456ZM92.3981 17.048C92.0355 17.048 91.7315 16.936 91.4861 16.712C91.2408 16.4773 91.1181 16.1893 91.1181 15.848C91.1181 15.5067 91.2408 15.224 91.4861 15C91.7315 14.7653 92.0355 14.648 92.3981 14.648C92.7608 14.648 93.0648 14.76 93.3101 14.984C93.5555 15.1973 93.6781 15.4693 93.6781 15.8C93.6781 16.152 93.5555 16.4507 93.3101 16.696C93.0755 16.9307 92.7715 17.048 92.3981 17.048ZM100.863 18.36C101.94 18.36 102.804 18.6747 103.455 19.304C104.106 19.9333 104.431 20.8667 104.431 22.104V27H102.431V22.36C102.431 21.6133 102.255 21.0533 101.903 20.68C101.551 20.296 101.05 20.104 100.399 20.104C99.6631 20.104 99.0818 20.328 98.6551 20.776C98.2285 21.2133 98.0151 21.848 98.0151 22.68V27H96.0151V18.456H97.9191V19.56C98.2498 19.1653 98.6658 18.8667 99.1671 18.664C99.6685 18.4613 100.234 18.36 100.863 18.36ZM115.526 18.456V25.704C115.526 28.712 113.99 30.216 110.918 30.216C110.097 30.216 109.318 30.1093 108.582 29.896C107.846 29.6933 107.238 29.3947 106.758 29L107.654 27.496C108.028 27.8053 108.497 28.0507 109.062 28.232C109.638 28.424 110.22 28.52 110.806 28.52C111.745 28.52 112.433 28.3067 112.87 27.88C113.308 27.4533 113.526 26.8027 113.526 25.928V25.48C113.185 25.8533 112.769 26.136 112.278 26.328C111.788 26.52 111.249 26.616 110.662 26.616C109.852 26.616 109.116 26.4453 108.454 26.104C107.804 25.752 107.286 25.2613 106.902 24.632C106.529 24.0027 106.342 23.2827 106.342 22.472C106.342 21.6613 106.529 20.9467 106.902 20.328C107.286 19.6987 107.804 19.2133 108.454 18.872C109.116 18.5307 109.852 18.36 110.662 18.36C111.281 18.36 111.841 18.4613 112.342 18.664C112.854 18.8667 113.281 19.176 113.622 19.592V18.456H115.526ZM110.966 24.92C111.724 24.92 112.342 24.696 112.822 24.248C113.313 23.7893 113.558 23.1973 113.558 22.472C113.558 21.7573 113.313 21.176 112.822 20.728C112.342 20.28 111.724 20.056 110.966 20.056C110.198 20.056 109.569 20.28 109.078 20.728C108.598 21.176 108.358 21.7573 108.358 22.472C108.358 23.1973 108.598 23.7893 109.078 24.248C109.569 24.696 110.198 24.92 110.966 24.92Z" fill="white"/>
</svg>
